<?xml version="1.0" encoding="utf-8"?>
<!-- Generator: Adobe Illustrator 27.0.0, SVG Export Plug-In . SVG Version: 6.00 Build 0)  -->
<svg version="1.1" id="레이어_1" xmlns="http://www.w3.org/2000/svg" xmlns:xlink="http://www.w3.org/1999/xlink" x="0px"
	 y="0px" viewBox="0 0 100 100" style="enable-background:new 0 0 100 100;" xml:space="preserve">
<style type="text/css">
	.st0{fill:none;stroke:#FFFFFF;stroke-width:4;stroke-miterlimit:4;}
	.st1{fill:#FFA1A1;}
</style>
<rect x="18.1" y="17.6" transform="matrix(0.7071 -0.7071 0.7071 0.7071 -20.4337 49.9978)" class="st0" width="64.1" height="64.1"/>
<g>
	<path class="st1" d="M39.1,29.4v-7.7h4.1v0.9h-3.1v5.9h0.5c0.8,0,1.4,0,2-0.1s1.1-0.2,1.5-0.3v0.8C44,29,43.8,29,43.5,29.1
		c-0.3,0.1-0.6,0.1-0.9,0.1c-0.3,0-0.7,0.1-1,0.1c-0.3,0-0.7,0-1,0H39.1z M48.6,20.7v11.8h-1V26h-1.8v6.2h-1V20.8h1v4.3h1.8v-4.4
		H48.6z"/>
	<path class="st1" d="M56.2,32.6c-0.6,0-1.2-0.1-1.7-0.2c-0.5-0.1-0.9-0.3-1.2-0.4c-0.3-0.2-0.6-0.4-0.8-0.7
		c-0.2-0.3-0.3-0.5-0.3-0.8c0-0.3,0.1-0.5,0.2-0.7s0.4-0.5,0.7-0.6c0.3-0.2,0.7-0.3,1.1-0.5c0.4-0.1,0.9-0.2,1.5-0.2v-1.1h-5.1v-0.9
		h11.3v0.9h-5.2v1.1c0.6,0,1.1,0.1,1.5,0.2c0.4,0.1,0.8,0.3,1.1,0.4s0.5,0.4,0.7,0.6c0.1,0.2,0.2,0.5,0.2,0.8c0,0.3-0.1,0.6-0.3,0.8
		c-0.2,0.3-0.4,0.5-0.8,0.7c-0.3,0.2-0.7,0.3-1.2,0.4C57.4,32.5,56.8,32.6,56.2,32.6z M59.5,21.9c-0.2,0.4-0.4,0.8-0.7,1.1
		c-0.3,0.3-0.6,0.6-1,0.9c0.5,0.2,1,0.4,1.5,0.6c0.5,0.2,1,0.5,1.4,0.8l-0.7,0.6c-0.6-0.4-1.1-0.7-1.6-0.9c-0.5-0.2-1-0.4-1.6-0.6
		c-0.7,0.4-1.5,0.7-2.3,0.9c-0.8,0.2-1.7,0.4-2.7,0.5l-0.4-0.8c0.8-0.1,1.5-0.3,2.2-0.4c0.7-0.2,1.3-0.4,1.9-0.6s1.1-0.5,1.5-0.7
		c0.4-0.3,0.7-0.6,1-0.9c-0.5,0-1,0-1.5,0c-0.5,0-1,0-1.5,0h-2.8v-0.9h3.1v-1.3h1v1.3h1.4c0.3,0,0.5,0,0.7,0s0.5,0,0.7,0
		c0.1,0,0.2,0,0.2,0.1S59.5,21.8,59.5,21.9z M56.2,31.7c0.5,0,1,0,1.4-0.1c0.4-0.1,0.7-0.2,0.9-0.3c0.2-0.1,0.4-0.2,0.5-0.4
		c0.1-0.1,0.2-0.3,0.2-0.4c0-0.1-0.1-0.3-0.2-0.4c-0.1-0.2-0.3-0.3-0.5-0.4c-0.2-0.1-0.5-0.2-0.9-0.3c-0.4-0.1-0.8-0.1-1.4-0.1
		c-0.5,0-1,0-1.4,0.1c-0.4,0.1-0.7,0.2-0.9,0.3c-0.2,0.1-0.4,0.3-0.5,0.4c-0.1,0.2-0.2,0.3-0.2,0.4c0,0.1,0.1,0.3,0.2,0.4
		c0.1,0.1,0.3,0.3,0.5,0.4c0.2,0.1,0.5,0.2,0.9,0.3C55.2,31.7,55.7,31.7,56.2,31.7z"/>
	<path class="st1" d="M35.3,48.1v-4.8h-2.8c-0.3,0.7-0.6,1.2-1.1,1.6c-0.5,0.4-1,0.5-1.6,0.5c-0.4,0-0.8-0.1-1.2-0.3
		c-0.4-0.2-0.7-0.5-1-0.8c-0.3-0.4-0.5-0.8-0.6-1.3c-0.2-0.5-0.2-1.1-0.2-1.8c0-0.7,0.1-1.3,0.2-1.8c0.2-0.5,0.4-1,0.6-1.3
		c0.3-0.4,0.6-0.6,1-0.8C29,37,29.4,37,29.8,37c0.6,0,1.1,0.2,1.5,0.5s0.8,0.8,1.1,1.4h2.8v-2.6h1v11.8H35.3z M31.8,41.2
		c0-0.5,0-0.9-0.1-1.4s-0.2-0.8-0.4-1.1c-0.2-0.3-0.4-0.5-0.6-0.7c-0.2-0.2-0.5-0.2-0.8-0.2s-0.6,0.1-0.8,0.2
		c-0.3,0.2-0.5,0.4-0.6,0.7c-0.2,0.3-0.3,0.6-0.4,1.1c-0.1,0.4-0.1,0.9-0.1,1.4c0,0.5,0,0.9,0.1,1.4c0.1,0.4,0.2,0.8,0.4,1.1
		s0.4,0.5,0.6,0.7c0.3,0.2,0.5,0.2,0.8,0.2s0.6-0.1,0.8-0.2c0.2-0.2,0.5-0.4,0.6-0.7s0.3-0.7,0.4-1.1S31.8,41.7,31.8,41.2z
		 M32.8,41.2c0,0.2,0,0.5,0,0.7c0,0.2,0,0.4-0.1,0.6h2.5v-2.7h-2.6C32.8,40.2,32.8,40.7,32.8,41.2z"/>
	<path class="st1" d="M38.8,44.8c0.8-0.4,1.5-0.8,2.1-1.3s1.1-1,1.5-1.6c0.4-0.6,0.7-1.2,1-1.8c0.2-0.6,0.4-1.3,0.5-1.9
		c-1.1,0-2.1,0-3.2,0h-1.4v-0.9h3.9c0.3,0,0.6,0,0.9,0c0.3,0,0.6,0,0.9,0c-0.1,1.8-0.6,3.4-1.5,4.8c-0.9,1.4-2.2,2.6-4,3.5
		L38.8,44.8z M47.4,48.1V36.3h1v11.8H47.4z"/>
	<path class="st1" d="M51.3,45v-7.7h5.5v0.9h-4.4v6h1.4c0.9,0,1.7-0.1,2.5-0.2c0.7-0.1,1.3-0.2,1.8-0.3v0.9
		c-0.3,0.1-0.6,0.1-0.9,0.2c-0.3,0.1-0.7,0.1-1.1,0.2c-0.4,0-0.8,0.1-1.2,0.1c-0.4,0-0.8,0-1.2,0H51.3z M62,40.8v0.9h-2.1v6.4h-1
		V36.3h1v4.5H62z"/>
	<path class="st1" d="M62.9,44.9c0.8-0.4,1.4-0.9,2-1.4c0.6-0.5,1.1-1,1.5-1.6c0.4-0.6,0.7-1.2,1-1.8c0.2-0.6,0.4-1.3,0.5-2
		c-0.5,0-1.1,0-1.6,0c-0.5,0-1.1,0-1.6,0h-1.4v-0.9h3.9c0.3,0,0.6,0,0.9,0s0.6,0,0.9,0c-0.1,1.8-0.6,3.4-1.5,4.8s-2.2,2.6-3.9,3.5
		L62.9,44.9z M74.1,41v0.9H72v6.3h-1V36.3h1V41H74.1z"/>
	<path class="st1" d="M34.3,59h-3.6v2.2h5V62h-11v-0.9h5V59h-3.2v-3.6h6.4v-1.8h-6.4v-0.9h7.4v3.6h-6.4v1.8h6.8V59z"/>
	<path class="st1" d="M47.9,61.1v0.9h-11v-0.9h4.3v-4.3h1v4.3H47.9z M44.4,59.5c0.2-0.9,0.4-1.8,0.5-2.8c0.1-1,0.2-2,0.2-2.9h-6.6
		v-0.9h7.6c0,0.5,0,1.1-0.1,1.7s-0.1,1.2-0.2,1.7c-0.1,0.6-0.1,1.1-0.2,1.7c-0.1,0.5-0.2,1.1-0.3,1.5H44.4z"/>
	<path class="st1" d="M54.2,52.2v4.2h1.9c0.9,0,1.7,0,2.4-0.1c0.7-0.1,1.3-0.2,1.8-0.3v0.8c-0.3,0.1-0.6,0.1-0.9,0.2
		c-0.3,0.1-0.7,0.1-1.1,0.2c-0.4,0-0.8,0.1-1.2,0.1c-0.4,0-0.8,0-1.2,0h-2.8v-5.1H54.2z M62.7,59.8h-8.6v-0.8h3.8v-1.2h1v1.2h3.8
		V59.8z M58.4,63.8c-1.2,0-2-0.2-2.6-0.5s-0.9-0.7-0.9-1.3c0-0.5,0.3-0.9,0.9-1.2c0.6-0.3,1.5-0.5,2.6-0.5c1.2,0,2,0.2,2.6,0.5
		s0.9,0.7,0.9,1.2c0,0.5-0.3,0.9-0.9,1.3C60.4,63.6,59.6,63.8,58.4,63.8z M58.4,62.9c0.8,0,1.4-0.1,1.8-0.2c0.4-0.2,0.6-0.4,0.6-0.6
		c0-0.2-0.2-0.4-0.6-0.6c-0.4-0.2-1-0.3-1.8-0.3s-1.4,0.1-1.8,0.3c-0.4,0.2-0.6,0.4-0.6,0.6c0,0.3,0.2,0.5,0.6,0.6
		C57,62.9,57.6,62.9,58.4,62.9z M61.2,54.8h-3.6v-0.9h3.6v-2.1h1v6.4h-1V54.8z"/>
	<path class="st1" d="M64.7,60.4c0.8-0.4,1.5-0.8,2.1-1.3c0.6-0.5,1.1-1,1.5-1.6c0.4-0.6,0.7-1.2,1-1.8c0.2-0.6,0.4-1.3,0.5-1.9
		c-1.1,0-2.1,0-3.2,0h-1.4v-0.9h3.9c0.3,0,0.6,0,0.9,0c0.3,0,0.6,0,0.9,0c-0.1,1.8-0.6,3.4-1.5,4.8c-0.9,1.4-2.2,2.6-4,3.5
		L64.7,60.4z M73.3,63.7V51.9h1v11.8H73.3z"/>
</g>
</svg>
